<mxfile host="app.diagrams.net" modified="2023-10-23T01:33:39.750Z" agent="Mozilla/5.0 (X11; Linux x86_64; rv:109.0) Gecko/20100101 Firefox/118.0" version="22.0.6" etag="yayTkVAW3R-MbKlKhTiH" type="github">
  <diagram name="第 1 页" id="R8k2Qd7gUJChRu3xk192">
    <mxGraphModel>
      <root>
        <mxCell id="0" />
        <mxCell id="1" parent="0" />
      </root>
    </mxGraphModel>
  </diagram>
</mxfile>
